<?xml version="1.0" encoding="UTF-8" standalone="no"?>
<!-- Created with Inkscape (http://www.inkscape.org/) -->

<svg
   version="1.1"
   id="svg1"
   width="1365.3333"
   height="1365.3333"
   viewBox="0 0 1365.3333 1365.3333"
   xmlns="http://www.w3.org/2000/svg"
   xmlns:svg="http://www.w3.org/2000/svg">
  <defs
     id="defs1" />
  <path
     id="path6"
     style="fill:#4ade80;fill-opacity:1;stroke-width:1;stroke-dasharray:none"
     d="m 1289.0675,105.12194 c -0.1383,0.003 -0.2982,0.0337 -0.4766,0.0937 -0.9257,0.31179 -22.3816,5.1376 -47.6816,10.72265 -42.4974,9.38141 -157.9713,35.91591 -193.0235,44.35547 l -15.0214,3.61719 30.3652,30.33398 30.3672,30.33398 -185.07229,185 c -101.7896,101.74981 -185.79464,184.77351 -186.67774,184.49805 -15.4601,-4.82238 -22.83366,-6.00763 -37.60546,-6.04883 -13.743,-0.0383 -17.85278,0.49429 -29.13868,3.77344 l -13.13867,3.81641 -45.52734,-45.51172 -45.52735,-45.51367 -0.0176,-17.67383 c -0.02,-20.95907 -1.94101,-29.50751 -10.56641,-47.00781 -10.3126,-20.92356 -24.33929,-35.32329 -44.65039,-45.8418 -59.41653,-30.77016 -131.35987,2.65072 -147.63867,68.58594 -1.59144,6.44596 -2.23169,14.11368 -2.10938,25.25586 l 0.17578,16 -62.25778,62.33398 c -34.24223,34.28333 -62.71075,62.33398 -63.26367,62.33398 -0.55293,0 -0.98002,-44.25065 -0.94922,-98.33398 l 0.0547,-98.33398 24.27734,-13.91407 c 13.3525,-7.65281 42.27735,-24.49716 64.27735,-37.43164 22,-12.93449 70.00129,-41.12438 106.66796,-62.64453 99.35687,-58.31387 259.58263,-152.59278 262.92383,-154.70703 2.5336,-1.60319 3.24859,-1.56656 5.33399,0.26758 1.3243,1.16479 13.2082,8.39205 26.4082,16.06055 13.2,7.66849 33,19.22341 44,25.67773 51.8998,30.45252 140.47906,82.10016 169.16406,98.63281 l 31.83203,18.3457 12.50196,-12.45117 c 6.8761,-6.84747 12.48544,-12.76143 12.46484,-13.14257 -0.02,-0.38115 -5.26992,-3.65692 -11.66601,-7.2793 -19.6573,-11.13264 -86.34056,-49.89835 -173.63086,-100.94141 -45.8333,-26.80107 -90.17777,-52.49695 -98.54297,-57.10156 l -15.20899,-8.37305 -9.45703,5.08399 c -13.443,7.22454 -133.78675,77.4076 -178.12305,103.8789 -15.0334,8.97575 -79.23463,46.78451 -142.66796,84.01953 -63.43333,37.23501 -126.57334,74.37246 -140.3125,82.52735 l -24.98048,14.82617 -0.0195,197.99609 -0.0195,197.99805 113.09961,-113.09375 113.09961,-113.09375 8.56641,2.40234 c 11.62571,3.26005 46.41065,3.32967 57.23437,0.11524 l 7.33204,-2.17774 47.66796,47.58594 47.66595,47.58789 v 11.0625 c 0,48.57795 32.85084,90.59824 79.55664,101.76367 15.5062,3.70689 40.17336,3.04286 54.44336,-1.46484 17.9317,-5.66437 29.53609,-12.77519 43.49609,-26.65625 11.4499,-11.3851 13.55295,-14.25937 19.56055,-26.72461 7.754,-16.08903 11.09602,-29.435 11.16992,-44.61328 l 0.0508,-10.6875 158.88086,-159.33398 C 1034.1172,434.27767 1119.9927,348.02186 1137.5694,330.23131 l 31.959,-32.34571 30.0332,30.01368 c 16.5189,16.50722 30.385,30.01172 30.8125,30.01172 0.4274,0 1.5314,-3.44935 2.4532,-7.66602 0.9218,-4.21667 13.9122,-59.86602 28.8691,-123.66602 14.9568,-63.79999 27.5062,-117.33437 27.8867,-118.96484 0.3958,-1.69613 0.2313,-2.50999 -0.5156,-2.49218 z m -841.24221,344.3164 c 20.53219,4.5e-4 37.17641,16.64554 37.17578,37.17773 -4.5e-4,20.53143 -16.64435,37.17534 -37.17578,37.17579 -20.53219,6.3e-4 -37.17728,-16.6436 -37.17773,-37.17579 -6.3e-4,-20.53295 16.64478,-37.17836 37.17773,-37.17773 z m 236.02734,204.23242 c 20.53219,-6.3e-4 37.17729,16.64359 37.17774,37.17578 -4.5e-4,20.53219 -16.64555,37.17641 -37.17774,37.17578 -20.53143,-4.5e-4 -37.17533,-16.64435 -37.17578,-37.17578 4.5e-4,-20.53143 16.64435,-37.17533 37.17578,-37.17578 z M 850.90862,1160.935 h -5e-4 c -88,51.3264 -162.4,94.6608 -165.3333,96.2987 l -5.3334,2.9779 -54,-31.5825 c -29.7,-17.3704 -91.5,-53.4973 -137.3333,-80.282 -45.83334,-26.7847 -127.73333,-74.6984 -181.99999,-106.4749 -54.26667,-31.7764 -103.91666,-60.79322 -110.33333,-64.48172 l -11.66667,-6.70635 v -55.40551 -55.4055 l 17.32035,-17.2819 17.32034,-17.28189 0.34632,64.60504 0.34632,64.60504 22,13.01944 c 12.1,7.1607 22.45,13.02443 23,13.02943 0.55,0.005 1,-40.19002 1,-89.32335 V 801.9116 h 44.66667 44.66666 l 0.0206,114.99999 0.0206,115.00001 22.57335,13 c 12.41534,7.15 22.90984,13 23.3211,13 0.41126,0 0.73645,-91.95001 0.72255,-204.33334 l -0.0252,-204.33332 h 45.68351 45.68352 l 0.3211,231.33332 0.3211,231.33334 23.6789,13.6451 23.6789,13.6451 0.3391,-148.64514 0.3391,-148.64506 h 46.0085 46.0085 l -0.043,176.9166 -0.043,176.9165 18.3623,10.509 c 10.0992,5.7799 20.8206,11.939 23.8253,13.687 l 5.4631,3.178 4.2792,-2.9369 4.2793,-2.9369 -0.1113,-160.3333 -0.1113,-160.33334 59.0356,-10e-5 59.0357,-10e-5 -0.3469,124.66674 c -0.1908,68.5668 -0.0751,124.6668 0.2571,124.6668 0.3322,0 13.3883,-7.4137 29.0136,-16.475 l 28.4095,-16.4749 0.3372,-223.52507 0.3373,-223.52502 h 45.325 45.3251 l 0.3377,197.2084 0.3377,197.20839 23.6667,-14.2051 23.66658,-14.2051 V 764.24823 496.57829 h 46.0001 46 v 241.99998 c 0,133.09999 0.3771,241.99999 0.8381,241.99999 0.4609,0 10.3522,-5.85 21.9806,-13 l 21.1425,-13 -0.314,-261.10561 -0.3139,-261.10561 -18,-9.84562 c -9.9,-5.41509 -18.6,-10.10183 -19.3333,-10.41497 -0.7334,-0.31314 4.1132,-6.07759 10.7701,-12.80989 l 12.1035,-12.24055 24.8965,13.68094 24.8965,13.68095 v 278.27703 278.27702 l -51.6666,30.37745 c -70.7286,41.5848 -89.9573,52.8252 -272.99998,159.5856 z m -665.97601,-496.77171 17.81292,-17.77338 17.81292,-17.77337" />
</svg>
